<svg width="1440" height="777" fill="none" xmlns="http://www.w3.org/2000/svg"><path d="M0 0h1440v562.29H0V0Zm0 673.716L360 748l360-37.142h360L1440 748V562.29H0v111.426ZM0 0h1440v562.29H0V0Zm0 673.716L360 748l360-37.142h360L1440 748V562.29H0v111.426Z" fill="#E74040"/><path fill-rule="evenodd" clip-rule="evenodd" d="M0 0h1440v562.29H0V0Zm0 673.716L360 748l360-37.142h360L1440 748V562.29H0v111.426ZM0 0h1440v562.29H0V0Zm0 673.716L360 748l360-37.142h360L1440 748V562.29H0v111.426Z" fill="#E74040"/></svg>