<svg width="41" height="40" fill="none" xmlns="http://www.w3.org/2000/svg"><path d="M.5 20c0-11.046 8.954-20 20-20s20 8.954 20 20-8.954 20-20 20-20-8.954-20-20Z" fill="#fff"/><g clip-path="url('#clip0_2685_489')"><path d="M10.5 11.633a.633.633 0 0 1 .633-.633h1.9a.633.633 0 0 1 .615.48l.513 2.053h14.706a.633.633 0 0 1 .622.75l-1.9 10.133a.633.633 0 0 1-.622.517h-11.4a.633.633 0 0 1-.622-.517l-1.899-10.114-.507-2.035h-1.406a.634.634 0 0 1-.633-.634Zm3.93 3.167 1.663 8.867h10.349l1.663-8.867H14.429Zm2.404 10.133a2.533 2.533 0 1 0 0 5.067 2.533 2.533 0 0 0 0-5.067Zm8.867 0a2.533 2.533 0 1 0 0 5.067 2.533 2.533 0 0 0 0-5.067ZM16.834 26.2a1.267 1.267 0 1 1 0 2.534 1.267 1.267 0 0 1 0-2.534Zm8.867 0a1.267 1.267 0 1 1 0 2.534 1.267 1.267 0 0 1 0-2.534Z" fill="#252B42"/></g><defs><clipPath id="clip0_2685_489"><path fill="#fff" transform="translate(10.5 10)" d="M0 0h20v20H0z"/></clipPath></defs></svg>