<svg width="25" height="24" fill="none" xmlns="http://www.w3.org/2000/svg"><g clip-path="url('#clip0_2685_834')"><path d="M19.348 12.352a1.199 1.199 0 0 0-1.697 0l-1.913 1.912c-.886-.263-2.541-.864-3.59-1.912-1.049-1.05-1.649-2.704-1.913-3.59l1.913-1.913a1.2 1.2 0 0 0 0-1.697l-4.8-4.8a1.199 1.199 0 0 0-1.697 0L2.397 3.606a2.398 2.398 0 0 0-.703 1.722c.027 1.709.48 7.644 5.157 12.322 4.678 4.677 10.613 5.128 12.323 5.157h.033c.634 0 1.233-.25 1.686-.703l3.255-3.254a1.2 1.2 0 0 0 0-1.697l-4.8-4.801Zm-.153 8.054c-1.497-.025-6.621-.427-10.647-4.454-4.04-4.04-4.43-9.181-4.454-10.649L6.5 2.897 9.603 6 8.05 7.552a1.2 1.2 0 0 0-.326 1.094c.029.138.733 3.41 2.725 5.402 1.992 1.993 5.264 2.697 5.402 2.726a1.19 1.19 0 0 0 1.095-.326l1.553-1.551L21.603 18l-2.408 2.406Z" fill="#fff"/></g><defs><clipPath id="clip0_2685_834"><path fill="#fff" transform="translate(.5)" d="M0 0h24v24H0z"/></clipPath></defs></svg>