<svg width="32" height="32" fill="none" xmlns="http://www.w3.org/2000/svg"><g clip-path="url('#clip0_2696_379')"><g clip-path="url('#clip1_2696_379')"><g clip-path="url('#clip2_2696_379')"><path d="M32 21.874c0-1.22-.786-2.252-1.875-2.64V9.522L32 8.749l-16-6.42L0 8.75l16 6.42 12.25-4.894v8.959a2.808 2.808 0 0 0-1.875 2.64c0 1.117.66 2.077 1.606 2.53l-1.557 4.673 1.777.593.986-2.958.986 2.958 1.778-.593-1.557-4.673A2.808 2.808 0 0 0 32 21.874Z" fill="#fff"/></g></g><g clip-path="url('#clip3_2696_379')"><g clip-path="url('#clip4_2696_379')"><path d="M16 17.189 7.562 13.8v2.447c0 2.673 3.628 4.688 8.438 4.688 4.81 0 8.438-2.015 8.438-4.688v-2.447L16 17.189Z" fill="#fff"/></g></g></g><defs><clipPath id="clip0_2696_379"><path fill="#fff" d="M0 0h32v32H0z"/></clipPath><clipPath id="clip1_2696_379"><path fill="#fff" transform="translate(0 2.33)" d="M0 0h32v27.341H0z"/></clipPath><clipPath id="clip2_2696_379"><path fill="#fff" transform="translate(0 2.33)" d="M0 0h32v27.341H0z"/></clipPath><clipPath id="clip3_2696_379"><path fill="#fff" transform="translate(7.563 13.8)" d="M0 0h16.875v7.135H0z"/></clipPath><clipPath id="clip4_2696_379"><path fill="#fff" transform="translate(7.563 13.8)" d="M0 0h16.875v7.135H0z"/></clipPath></defs></svg>