<svg width="32" height="32" fill="none" xmlns="http://www.w3.org/2000/svg"><g clip-path="url('#clip0_2696_394')"><g clip-path="url('#clip1_2696_394')"><g clip-path="url('#clip2_2696_394')"><path d="M6.614 25.546H28.41c.067 0 .132-.01.194-.025l.014.001a.844.844 0 0 0 .843-.843V.843A.844.844 0 0 0 28.62 0H6.615a4.075 4.075 0 0 0-4.07 4.07c0 .03.005.059.008.088-.003 2.073-.028 21.121-.003 23.625-.001.05-.007.097-.007.146a4.073 4.073 0 0 0 3.815 4.058.83.83 0 0 0 .128.013H28.62a.844.844 0 0 0 .843-.843v-3.175a.844.844 0 0 0-1.687 0v2.332H6.614a2.385 2.385 0 0 1-2.38-2.287c.002-.023.006-.044.006-.067l-.003-.171a2.385 2.385 0 0 1 2.377-2.243ZM7.189 4.07a.844.844 0 0 1 1.687 0V21.2a.844.844 0 0 1-1.687 0V4.07Z" fill="#fff"/></g></g></g><defs><clipPath id="clip0_2696_394"><path fill="#fff" d="M0 0h32v32H0z"/></clipPath><clipPath id="clip1_2696_394"><path fill="#fff" d="M0 0h32v32H0z"/></clipPath><clipPath id="clip2_2696_394"><path fill="#fff" transform="translate(2.54)" d="M0 0h26.923v32H0z"/></clipPath></defs></svg>