<svg width="32" height="32" fill="none" xmlns="http://www.w3.org/2000/svg"><g clip-path="url('#clip0_2696_398')"><g clip-path="url('#clip1_2696_398')"><g clip-path="url('#clip2_2696_398')"><g clip-path="url('#clip3_2696_398')" fill="#fff"><path d="M4.896 3.776h-.003a1.14 1.14 0 0 0-1.14 1.145v17.171c0 .63.515 1.143 1.147 1.145 2.666.006 7.131.562 10.212 3.786V9.053c0-.213-.055-.414-.157-.58-2.529-4.072-7.388-4.69-10.06-4.697ZM28.247 22.092V4.922a1.14 1.14 0 0 0-1.14-1.146h-.002c-2.672.007-7.53.625-10.059 4.697a1.097 1.097 0 0 0-.157.58v17.97c3.08-3.224 7.546-3.78 10.211-3.786a1.15 1.15 0 0 0 1.147-1.145Z"/><path d="M30.855 7.736h-.83v14.356a2.93 2.93 0 0 1-2.92 2.923c-2.26.005-5.988.447-8.628 2.946 4.566-1.118 9.379-.391 12.122.234A1.143 1.143 0 0 0 32 27.079V8.881c0-.631-.513-1.145-1.145-1.145ZM1.975 22.092V7.736h-.83C.514 7.736 0 8.25 0 8.881V27.08a1.142 1.142 0 0 0 1.401 1.116c2.743-.626 7.557-1.352 12.123-.234-2.64-2.499-6.368-2.94-8.629-2.946a2.93 2.93 0 0 1-2.92-2.923Z"/></g></g></g></g><defs><clipPath id="clip0_2696_398"><path fill="#fff" d="M0 0h32v32H0z"/></clipPath><clipPath id="clip1_2696_398"><path fill="#fff" transform="translate(0 3.776)" d="M0 0h32v24.448H0z"/></clipPath><clipPath id="clip2_2696_398"><path fill="#fff" transform="translate(0 3.776)" d="M0 0h32v24.448H0z"/></clipPath><clipPath id="clip3_2696_398"><path fill="#fff" transform="translate(0 3.776)" d="M0 0h32v24.448H0z"/></clipPath></defs></svg>