<svg width="33" height="32" fill="none" xmlns="http://www.w3.org/2000/svg"><g clip-path="url('#clip0_2696_387')"><g clip-path="url('#clip1_2696_387')"><g clip-path="url('#clip2_2696_387')" fill="#fff"><path d="M11.775 21.605h9.45v4.725h-9.45v-4.724Z"/><path d="M16.5 3.652c-5.732 0-10.395 4.663-10.395 10.395V28.22A3.784 3.784 0 0 0 9.885 32h13.23a3.784 3.784 0 0 0 3.779-3.78V14.047c0-5.732-4.663-10.395-10.394-10.395Zm-5.67 8.505h11.34v1.89h-1.89v1.89h-1.89v-1.89h-7.56v-1.89ZM23.114 28.22H9.885v-8.505h13.23v8.505ZM26.204 1.839 20.841 0l-.784 2.288a12.293 12.293 0 0 1 4.985 2.94l1.162-3.39ZM12.943 2.288 12.158 0 6.795 1.839l1.162 3.389a12.294 12.294 0 0 1 4.986-2.94Z"/></g></g></g><defs><clipPath id="clip0_2696_387"><path fill="#fff" transform="translate(.5)" d="M0 0h32v32H0z"/></clipPath><clipPath id="clip1_2696_387"><path fill="#fff" transform="translate(.5)" d="M0 0h32v32H0z"/></clipPath><clipPath id="clip2_2696_387"><path fill="#fff" transform="translate(6.105)" d="M0 0h20.788v32H0z"/></clipPath></defs></svg>