<svg width="41" height="40" fill="none" xmlns="http://www.w3.org/2000/svg"><path d="M.5 20c0-11.046 8.954-20 20-20s20 8.954 20 20-8.954 20-20 20-20-8.954-20-20Z" fill="#fff"/><path d="m20.5 15.953-1.364-1.396v-.001a3.738 3.738 0 0 0-5.334 0 3.875 3.875 0 0 0 0 5.438l6.475 6.557.223.225.222-.225 6.475-6.556a3.875 3.875 0 0 0 0-5.44 3.733 3.733 0 0 0-2.666-1.117v.312m-4.03 2.203 1.356-1.383v-.001l.224.218m-1.58 1.166 1.355-1.383M20.5 15.953l1.356-1.383m2.675-.82a3.399 3.399 0 0 0-2.45 1.037m2.45-1.037a3.419 3.419 0 0 1 2.444 1.025L24.53 13.75Zm-2.45 1.037-.225-.217m.225.217-.225-.217m2.675-1.758a4.37 4.37 0 0 1 3.115 1.307 4.513 4.513 0 0 1 0 6.324L20.5 27.68l-7.146-7.236a4.513 4.513 0 0 1 0-6.325 4.37 4.37 0 0 1 6.23 0v.001l.694.7.222.224.222-.224.694-.7v-.001a4.356 4.356 0 0 1 3.115-1.306Z" fill="#BDBDBD" stroke="#252B42" stroke-width=".625"/></svg>