<svg width="445" height="274" fill="none" xmlns="http://www.w3.org/2000/svg"><path d="M124.805 273.334c-9.266 0-16.95-3.18-22.218-9.229-7.27-8.322-8.045-19.703-8.799-30.714-.664-9.7-1.349-19.735-6.457-27.649-8.136-12.606-23.328-15.463-39.413-18.49-14.508-2.73-29.51-5.556-39.1-16.158-16.525-18.267-6.839-48.239 11.609-65.578 8.496-7.952 18.506-14.228 28.208-20.292 10.987-6.891 22.35-13.979 31.368-23.51 5.246-5.55 9.25-11.694 13.121-17.642 5.66-8.693 11.513-17.678 21.278-24.76C131.581 6.858 154.08 0 177.748 0c15.719 0 31.145 3.08 44.606 8.906 14.062 6.085 24.507 18.134 34.613 29.786 11.634 13.417 22.621 26.086 38.722 30.714a47.295 47.295 0 0 0 13.058 1.797c16.302 0 32.674-7.772 48.509-15.283 4.248-2.025 8.677-4.119 12.968-5.995 10.976-4.803 23.184-7.448 34.373-7.448 18.097 0 31.33 6.95 37.273 19.566 8.347 17.726-1.593 36.131-11.232 53.926-3.398 6.282-6.903 12.781-9.526 19.084-6.16 14.912-7.679 31.419-9.144 47.385-.531 5.773-1.062 11.737-1.838 17.552-3.68 28.164-13.451 47.709-29.042 58.115-8.687 5.794-19 8.736-30.65 8.736-16.632 0-36.264-5.879-60.006-17.976-21.108-10.75-45.036-22.932-68.168-22.932a57.547 57.547 0 0 0-21.055 3.848c-11.114 4.347-20.386 12.399-29.355 20.181-5.188 4.506-10.557 9.16-16.265 13.11-9.293 6.43-20.795 10.262-30.784 10.262ZM177.743 1.633c-23.328 0-45.482 6.748-62.385 18.998-9.521 6.892-15.033 15.373-20.87 24.327-3.913 6.006-7.964 12.192-13.301 17.87-9.16 9.684-20.61 16.846-31.687 23.774-9.632 6.022-19.594 12.256-27.953 20.101-17.964 16.858-26.875 46.315-11.518 63.294 9.224 10.199 23.95 12.966 38.192 15.649 15.718 2.957 31.967 6.016 40.485 19.21 5.337 8.27 6.038 18.517 6.712 28.424.765 11.233 1.492 21.84 8.396 29.749 4.949 5.672 12.213 8.667 20.986 8.667 9.664 0 20.821-3.71 29.838-9.955 5.64-3.896 10.971-8.524 16.122-12.998 9.075-7.877 18.458-16.019 29.833-20.467a59.184 59.184 0 0 1 21.65-3.96c23.524 0 47.638 12.277 68.911 23.112 23.519 11.975 42.912 17.801 59.278 17.801 11.322 0 21.326-2.847 29.738-8.481 15.182-10.125 24.714-29.294 28.325-56.97.754-5.783 1.301-11.736 1.832-17.493 1.476-16.083 3-32.718 9.261-47.858 2.655-6.398 6.176-12.934 9.595-19.253 9.431-17.44 19.181-35.469 11.189-52.48-5.65-12.011-18.363-18.622-35.791-18.622-10.966 0-22.94 2.598-33.715 7.316-4.248 1.871-8.671 3.954-12.925 5.974-15.994 7.59-32.536 15.436-49.21 15.442a48.936 48.936 0 0 1-13.509-1.861c-16.574-4.77-28.23-18.203-39.509-31.212-9.983-11.514-20.306-23.42-34.028-29.357-13.243-5.71-28.447-8.741-43.942-8.741Z" fill="#6A1AB7"/></svg>