<svg width="445" height="274" viewBox="0 0 445 274" fill="none" xmlns="http://www.w3.org/2000/svg">
<path d="M124.805 273.334C115.539 273.334 107.855 270.154 102.587 264.105C95.3173 255.783 94.542 244.402 93.788 233.391C93.1242 223.691 92.4392 213.656 87.3307 205.742C79.1954 193.136 64.0027 190.279 47.9179 187.252C33.4103 184.522 18.4089 181.696 8.81862 171.094C-7.70688 152.827 1.97895 122.855 20.4268 105.516C28.9232 97.5645 38.933 91.2881 48.6349 85.2238C59.6218 78.3326 70.9858 71.2452 80.0026 61.714C85.2491 56.1639 89.253 50.02 93.1242 44.0723C98.7849 35.3787 104.637 26.3936 114.402 19.3115C131.581 6.85949 154.08 0 177.748 0C193.467 0 208.893 3.07989 222.354 8.90567C236.416 14.9912 246.861 27.0403 256.967 38.6918C268.601 52.1086 279.588 64.778 295.689 69.4057C299.936 70.6113 304.332 71.2162 308.747 71.2028C325.049 71.2028 341.421 63.4315 357.256 55.92C361.504 53.895 365.933 51.8012 370.224 49.9246C381.2 45.122 393.408 42.4767 404.597 42.4767C422.694 42.4767 435.927 49.4263 441.87 62.0427C450.217 79.7691 440.277 98.1741 430.638 115.969C427.24 122.251 423.735 128.75 421.112 135.053C414.952 149.965 413.433 166.472 411.968 182.438C411.437 188.211 410.906 194.175 410.13 199.99C406.45 228.154 396.679 247.699 381.088 258.105C372.401 263.899 362.088 266.841 350.438 266.841C333.806 266.841 314.174 260.962 290.432 248.865C269.324 238.115 245.396 225.933 222.264 225.933C215.066 225.888 207.924 227.193 201.209 229.781C190.095 234.128 180.823 242.18 171.854 249.962C166.666 254.468 161.297 259.122 155.589 263.072C146.296 269.502 134.794 273.334 124.805 273.334ZM177.743 1.63268C154.415 1.63268 132.261 8.38087 115.358 20.6314C105.837 27.5227 100.325 36.0043 94.4889 44.9576C90.5753 50.9636 86.5236 57.1498 81.1867 62.8272C72.0266 72.5121 60.5776 79.6737 49.5004 86.6021C39.8676 92.624 29.9056 98.858 21.5473 106.703C3.5827 123.561 -5.32787 153.018 10.0294 169.997C19.2533 180.196 33.9786 182.963 48.2207 185.646C63.939 188.603 80.1884 191.662 88.706 204.856C94.0428 213.126 94.7438 223.373 95.4182 233.28C96.1829 244.513 96.9103 255.12 103.814 263.029C108.763 268.701 116.027 271.696 124.8 271.696C134.464 271.696 145.621 267.986 154.638 261.741C160.278 257.845 165.609 253.217 170.76 248.743C179.835 240.866 189.218 232.724 200.593 228.276C207.497 225.614 214.842 224.271 222.243 224.316C245.767 224.316 269.881 236.593 291.154 247.428C314.673 259.403 334.066 265.229 350.432 265.229C361.754 265.229 371.758 262.382 380.17 256.748C395.352 246.623 404.884 227.454 408.495 199.778C409.249 193.995 409.796 188.042 410.327 182.285C411.803 166.202 413.327 149.567 419.588 134.427C422.243 128.029 425.764 121.493 429.183 115.174C438.614 97.7341 448.364 79.7055 440.372 62.6947C434.722 50.6827 422.009 44.0723 404.581 44.0723C393.615 44.0723 381.641 46.6698 370.866 51.3877C366.618 53.259 362.195 55.3422 357.941 57.3619C341.947 64.9529 325.405 72.7983 308.731 72.8036C304.163 72.8169 299.616 72.1906 295.222 70.943C278.648 66.1721 266.992 52.7395 255.713 39.7309C245.73 28.2171 235.407 16.3111 221.685 10.3741C208.442 4.6649 193.238 1.63268 177.743 1.63268Z" fill="#6A1AB7"/>
</svg>
